<?xml version="1.0" standalone="no"?>
<!DOCTYPE svg PUBLIC "-//W3C//DTD SVG 20010904//EN"
 "http://www.w3.org/TR/2001/REC-SVG-20010904/DTD/svg10.dtd">
<svg version="1.0" xmlns="http://www.w3.org/2000/svg"
 width="700.000000pt" height="700.000000pt" viewBox="0 0 700.000000 700.000000"
 preserveAspectRatio="xMidYMid meet">
<metadata>
Created by potrace 1.14, written by Peter Selinger 2001-2017
</metadata>
<g transform="translate(0.000000,700.000000) scale(0.100000,-0.100000)"
fill="#000000" stroke="none">
<path d="M3290 6990 c-1088 -69 -2068 -628 -2683 -1531 -320 -469 -518 -1008
-582 -1584 -34 -298 -19 -702 36 -1000 175 -944 717 -1764 1514 -2290 488
-322 1010 -506 1600 -566 153 -15 495 -15 650 0 970 95 1858 585 2443 1348
405 528 646 1141 712 1808 16 154 16 496 0 650 -114 1154 -767 2157 -1772
2724 -572 323 -1264 482 -1918 441z m-1115 -1551 c300 -251 517 -465 763 -751
75 -87 141 -158 147 -158 6 0 58 7 116 16 145 22 448 21 602 -1 66 -9 122 -13
126 -9 4 5 51 72 104 149 201 292 376 496 615 717 79 73 149 134 156 136 12 3
109 -120 193 -248 191 -288 387 -705 533 -1135 219 -645 392 -1512 488 -2444
l18 -175 -60 -75 c-91 -115 -367 -385 -496 -485 -586 -454 -1255 -686 -1980
-686 -934 0 -1816 405 -2428 1115 -136 159 -126 131 -112 297 147 1792 484
3043 1008 3751 36 48 70 87 76 87 6 0 65 -46 131 -101z"/>
<path d="M2462 3905 c-226 -77 -363 -267 -363 -500 0 -210 107 -383 294 -475
157 -77 311 -77 468 2 184 92 292 269 291 477 -1 154 -60 284 -176 387 -141
126 -339 168 -514 109z m275 -284 c167 -85 178 -327 19 -426 -44 -27 -58 -30
-131 -30 -73 0 -87 3 -131 30 -179 111 -140 379 66 446 40 13 133 3 177 -20z"/>
<path d="M4212 3905 c-224 -77 -362 -266 -363 -497 -1 -210 107 -386 294 -478
157 -77 311 -77 468 2 183 91 290 265 290 473 0 158 -58 287 -175 391 -141
126 -339 168 -514 109z m275 -283 c167 -86 178 -328 19 -427 -44 -27 -58 -30
-131 -30 -73 0 -87 3 -131 30 -179 111 -140 379 66 446 40 13 133 3 177 -19z"/>
<path d="M3370 2729 c-70 -12 -174 -62 -199 -97 -78 -110 -24 -270 126 -373
l43 -30 0 -102 c0 -113 -9 -158 -43 -208 -34 -51 -78 -72 -150 -71 -87 1 -173
45 -221 112 -50 69 -89 92 -147 87 -92 -8 -153 -89 -130 -175 22 -81 113 -172
232 -232 96 -49 163 -64 284 -64 126 1 195 20 282 80 l52 36 33 -25 c78 -58
196 -96 301 -97 191 -1 408 112 492 253 63 108 10 227 -100 227 -47 0 -68 -12
-137 -77 -84 -79 -152 -108 -255 -108 -73 0 -84 3 -109 25 -48 44 -66 103 -72
225 l-4 110 36 19 c51 27 133 117 158 173 32 71 30 149 -4 201 -63 95 -267
143 -468 111z"/>
</g>
</svg>
