<?xml version="1.0" standalone="no"?>
<!DOCTYPE svg PUBLIC "-//W3C//DTD SVG 20010904//EN"
 "http://www.w3.org/TR/2001/REC-SVG-20010904/DTD/svg10.dtd">
<svg version="1.0" xmlns="http://www.w3.org/2000/svg"
 width="700.000000pt" height="700.000000pt" viewBox="0 0 700.000000 700.000000"
 preserveAspectRatio="xMidYMid meet">
<metadata>
Created by potrace 1.14, written by Peter Selinger 2001-2017
</metadata>
<g transform="translate(0.000000,700.000000) scale(0.100000,-0.100000)"
fill="#000000" stroke="none">
<path d="M1595 6348 c-325 -37 -596 -282 -669 -606 -31 -135 -14 -329 40 -462
84 -207 270 -376 494 -447 76 -25 100 -28 225 -28 119 0 151 4 215 23 256 81
444 263 524 508 46 141 50 312 9 454 -21 75 -86 204 -130 259 -113 141 -298
260 -443 285 -120 21 -177 24 -265 14z"/>
<path d="M5277 6354 c-1 -1 -24 -4 -52 -6 -217 -21 -437 -157 -560 -348 -186
-288 -167 -649 49 -915 38 -47 53 -61 131 -129 75 -65 250 -136 370 -151 469
-58 882 311 874 779 -2 151 -41 288 -114 402 -122 190 -299 312 -515 353 -50
10 -177 20 -183 15z"/>
<path d="M3070 3759 c-93 -5 -128 -11 -185 -34 -279 -111 -407 -424 -285 -698
23 -51 95 -145 241 -312 48 -55 125 -145 171 -199 l85 -99 -13 -66 c-84 -431
-444 -797 -879 -894 -107 -24 -151 -29 -260 -29 -490 0 -923 301 -1093 762
-44 119 -61 201 -72 353 -12 179 -34 239 -118 325 -98 101 -245 139 -384 98
-104 -30 -191 -106 -244 -214 -27 -54 -28 -65 -28 -187 0 -145 7 -222 30 -340
100 -512 398 -957 834 -1250 165 -110 412 -218 615 -269 87 -22 96 -23 255
-45 64 -9 396 -7 435 2 11 3 43 8 70 11 28 4 57 9 65 11 8 2 26 6 40 9 171 29
479 156 650 268 157 102 345 271 448 401 25 31 48 57 52 57 3 0 30 -29 58 -64
129 -158 314 -318 497 -428 190 -114 452 -213 660 -247 39 -6 84 -14 100 -17
69 -13 383 -12 485 2 585 79 1088 401 1403 897 20 31 37 60 37 62 0 3 11 22
24 43 50 80 135 295 171 432 19 72 20 79 36 165 5 33 12 71 15 85 3 14 7 89 9
168 5 158 -7 212 -67 299 -133 195 -418 220 -590 51 -46 -45 -92 -125 -104
-180 -3 -13 -7 -50 -10 -83 -11 -151 -14 -184 -18 -196 -3 -8 -8 -32 -11 -54
-9 -69 -55 -196 -103 -290 -285 -558 -962 -790 -1530 -524 -172 79 -298 181
-437 350 -77 93 -163 277 -201 428 l-24 95 23 25 c13 14 77 89 143 166 65 77
129 151 140 165 114 131 159 191 185 243 147 291 -18 652 -334 731 -57 14
-131 17 -470 19 -221 1 -454 -1 -517 -4z"/>
</g>
</svg>
